<?xml version="1.0" encoding="utf-8"?>
<!-- Generator: Adobe Illustrator 25.0.0, SVG Export Plug-In . SVG Version: 6.00 Build 0)  -->
<svg version="1.1" id="Layer_1" xmlns="http://www.w3.org/2000/svg" xmlns:xlink="http://www.w3.org/1999/xlink" x="0px" y="0px"
	 viewBox="0 0 340.5 260" style="enable-background:new 0 0 340.5 260;" xml:space="preserve">
<style type="text/css">
	.st0{fill-rule:evenodd;clip-rule:evenodd;fill:url(#SVGID_1_);}
	.st1{fill-rule:evenodd;clip-rule:evenodd;fill:#BBE1F8;}
	.st2{fill-rule:evenodd;clip-rule:evenodd;fill:#B1875E;}
	.st3{fill-rule:evenodd;clip-rule:evenodd;fill:#A0774D;}
	.st4{fill-rule:evenodd;clip-rule:evenodd;fill:#D89427;}
	.st5{fill-rule:evenodd;clip-rule:evenodd;fill:#DC9E42;}
	.st6{fill-rule:evenodd;clip-rule:evenodd;fill:#E6C28F;}
	.st7{fill-rule:evenodd;clip-rule:evenodd;fill:#BE8620;}
	.st8{fill-rule:evenodd;clip-rule:evenodd;fill:#D8EBFF;}
	.st9{fill-rule:evenodd;clip-rule:evenodd;fill:#E8A945;}
	.st10{fill-rule:evenodd;clip-rule:evenodd;fill:#E49F29;}
	.st11{fill-rule:evenodd;clip-rule:evenodd;fill:#F2CD96;}
	.st12{fill-rule:evenodd;clip-rule:evenodd;fill:#CA9222;}
</style>
<g>
	<linearGradient id="SVGID_1_" gradientUnits="userSpaceOnUse" x1="171.1646" y1="21.1981" x2="171.1646" y2="256.8046">
		<stop  offset="0" style="stop-color:#AAD2F0"/>
		<stop  offset="1" style="stop-color:#FFFFFF"/>
	</linearGradient>
	<rect x="17.56" y="16.15" class="st0" width="307.2" height="230.4"/>
	<path class="st1" d="M324.76,174.32c-5.11,0-29.01,6.98-47.59,2.32c-15.4-3.86-25.77-19.51-31.16-19.51
		c-9.79,0-20.12,17.19-31.19,17.19c-10.28,0-24.59-20.17-35.61-20.17c-15.29,0-27.56,20.17-43.52,20.17
		c-11.52,0-17.17-22.28-28.64-22.28c-11.11,0-28.07,22.28-38.83,22.28c-9.87,0-18.04-24.19-27.37-24.19
		c-7.5,0-16.27,24.19-23.28,24.19v40.3h307.2C324.76,201.19,324.76,187.75,324.76,174.32z"/>
	<g>
		<path class="st2" d="M17.56,179.91c11,0,23.99-20.25,38.01-20.25c11.54,0,23.71,20.25,36.75,20.25
			c12.11,0,24.26-13.75,37.25-13.75c18.02,0,37.19,13.75,56,13.75c13.58,0,20.23-26.25,33.75-26.25c13.1,0,33.07,26.25,45.75,26.25
			c11.63,0,21.26-28.5,32.25-28.5c8.84,0,19.18,28.5,27.44,28.5v47.48H17.56C17.56,211.57,17.56,195.74,17.56,179.91z"/>
		<path class="st3" d="M324.76,195.41v31.98H17.56v-31.98c8.26,0,19.35-21,28.19-21c10.99,0,19.87,21,31.5,21
			c12.68,0,28.9-14.5,42-14.5c13.52,0,23.92,14.5,37.5,14.5c18.81,0,37.98-13.75,56-13.75c12.99,0,25.14,13.75,37.25,13.75
			c13.04,0,25.21-20.25,36.75-20.25C300.78,175.16,313.76,195.41,324.76,195.41z"/>
	</g>
	<g>
		<polygon class="st4" points="160.89,211.18 137.23,164.42 107.93,206.52 		"/>
		<polygon class="st5" points="160.85,211.1 137.23,164.42 186.37,195.92 		"/>
	</g>
	<g>
		<polygon class="st4" points="255.45,196.64 275.38,160.31 299.91,197.82 		"/>
		<polygon class="st5" points="255.49,196.58 275.38,160.31 233.98,184.78 		"/>
	</g>
	<g>
		<path class="st5" d="M324.76,235.72H17.56v-40.18c17.18,0,34.01-11.76,49.98-10.33c31.82,2.84,61.67,19.39,94.33,15.24
			c24.39-3.09,53.07-25.91,78.64-25.91c25.42,0,58.83,21,84.25,21V235.72z"/>
		<path class="st4" d="M324.76,235.72H17.56v-21.18c17.18,0,33.01,10.74,48.98,12.17c31.82,2.83,56.67-12.11,89.33-16.26
			c24.39-3.09,58.07-4.91,83.64-4.91c25.42,0,59.83,9,85.25,9V235.72z"/>
		<path class="st6" d="M17.56,197.54v-2c17.18,0,34.01-11.76,49.98-10.33c31.82,2.84,61.67,19.39,94.33,15.24
			c24.39-3.09,53.07-25.91,78.64-25.91c25.42,0,58.83,21,84.25,21v2c-25.42,0-58.83-21-84.25-21c-25.57,0-54.25,22.82-78.64,25.91
			c-32.66,4.14-62.51-12.41-94.33-15.24C51.58,185.78,34.74,197.54,17.56,197.54z"/>
		<path class="st7" d="M276.26,196.17c2.89,0,5.25-1.18,5.25-2.62c0-1.45-2.36-2.62-5.25-2.62c-2.89,0-5.25,1.18-5.25,2.62
			C271.01,194.99,273.37,196.17,276.26,196.17z"/>
		<ellipse class="st6" cx="229.13" cy="188.29" rx="4.12" ry="1.62"/>
		<ellipse class="st7" cx="213.26" cy="213.29" rx="2.75" ry="1.12"/>
		<ellipse class="st7" cx="120.76" cy="209.17" rx="2.75" ry="1.25"/>
		<ellipse class="st6" cx="137.76" cy="224.92" rx="1.5" ry="0.25"/>
		<ellipse class="st6" cx="51.01" cy="201.54" rx="2" ry="0.62"/>
		<ellipse class="st7" cx="41.38" cy="214.92" rx="2.62" ry="1.5"/>
	</g>
	<path class="st8" d="M17.56,48.87c144.9-32,232.3,22.5,307.2,0v-8.5c-110.9,22.5-198.8-32-307.2,0V48.87z"/>
	<path class="st8" d="M324.76,75.61c-144.9-20.08-232.3,14.12-307.2,0v-5.33c110.9,14.12,198.8-20.08,307.2,0V75.61z"/>
	<g>
		<path class="st9" d="M17.56,246.55h307.2v-40.18c-17.18,0-34.01-11.76-49.98-10.34c-31.82,2.84-61.67,19.39-94.33,15.24
			c-24.39-3.09-53.07-25.91-78.64-25.91c-25.42,0-58.83,21-84.25,21V246.55z"/>
		<path class="st10" d="M17.56,246.55h307.2v-21.18c-17.18,0-33.02,10.74-48.98,12.16c-31.82,2.84-56.67-12.11-89.33-16.26
			c-24.39-3.09-58.07-4.91-83.64-4.91c-25.42,0-59.83,9-85.25,9L17.56,246.55z"/>
		<path class="st11" d="M324.76,208.37v-2c-17.18,0-34.01-11.76-49.98-10.34c-31.82,2.84-61.67,19.39-94.33,15.24
			c-24.39-3.09-53.07-25.91-78.64-25.91c-25.42,0-58.83,21-84.25,21v2c25.42,0,58.83-21,84.25-21c25.57,0,54.25,22.82,78.64,25.91
			c32.66,4.14,62.51-12.41,94.33-15.24C290.75,196.61,307.58,208.37,324.76,208.37z"/>
		<path class="st12" d="M66.07,207c2.89,0,5.25-1.18,5.25-2.62c0-1.45-2.36-2.62-5.25-2.62s-5.25,1.18-5.25,2.62
			C60.82,205.82,63.18,207,66.07,207z"/>
		<ellipse class="st11" cx="113.2" cy="199.13" rx="4.12" ry="1.62"/>
		<path class="st12" d="M129.07,225.25c1.51,0,2.75-0.5,2.75-1.12c0-0.62-1.24-1.12-2.75-1.12c-1.51,0-2.75,0.51-2.75,1.12
			C126.32,224.75,127.56,225.25,129.07,225.25z"/>
		<path class="st12" d="M221.57,221.25c1.51,0,2.75-0.56,2.75-1.25c0-0.69-1.24-1.25-2.75-1.25c-1.51,0-2.75,0.56-2.75,1.25
			C218.82,220.69,220.06,221.25,221.57,221.25z"/>
		<ellipse class="st11" cx="204.57" cy="235.75" rx="1.5" ry="0.25"/>
		<path class="st11" d="M291.32,213c1.1,0,2-0.28,2-0.62c0-0.34-0.9-0.62-2-0.62c-1.1,0-2,0.28-2,0.62
			C289.32,212.72,290.22,213,291.32,213z"/>
		<path class="st12" d="M300.95,227.25c1.45,0,2.62-0.67,2.62-1.5c0-0.83-1.18-1.5-2.62-1.5s-2.62,0.67-2.62,1.5
			C298.32,226.58,299.5,227.25,300.95,227.25z"/>
	</g>
</g>
</svg>
